<svg width="22" height="22" viewBox="0 0 22 22" fill="none" xmlns="http://www.w3.org/2000/svg">
<g id="Facebook_f_logo_(2021) 1" clip-path="url(#clip0_987_21953)">
<path id="Subtract" fill-rule="evenodd" clip-rule="evenodd" d="M0 11C0 16.445 3.96 20.955 9.185 21.89L9.24996 21.8368C9.24664 21.8362 9.24331 21.8356 9.23999 21.835V14.08H6.48999V11H9.23999V8.58004C9.23999 5.83004 11 4.29004 13.53 4.29004C14.3 4.29004 15.18 4.40004 15.95 4.51004V7.31504H14.52C13.2 7.31504 12.87 7.97504 12.87 8.85504V11H15.785L15.29 14.08H12.87V21.835C12.8365 21.8411 12.803 21.847 12.7695 21.8528L12.815 21.89C18.04 20.955 22 16.445 22 11C22 4.95 17.05 0 11 0C4.95 0 0 4.95 0 11Z" fill="white"/>
</g>
<defs>
<clipPath id="clip0_987_21953">
<rect width="22" height="22" fill="white"/>
</clipPath>
</defs>
</svg>
