<svg width="64" height="64" viewBox="0 0 64 64" fill="none" xmlns="http://www.w3.org/2000/svg">
<path d="M18 52.4941C21.8544 55.5252 26.7161 57.3332 32 57.3332C37.2839 57.3332 42.1456 55.5252 46 52.4941" stroke="#757575" stroke-width="4"/>
<path d="M25.3281 12.9961C16.0632 15.8429 9.32812 24.4681 9.32812 34.6665C9.32812 37.2329 9.75464 39.6997 10.5407 41.9999" stroke="#757575" stroke-width="4"/>
<path d="M38.6641 12.9961C47.929 15.8429 54.6641 24.4681 54.6641 34.6665C54.6641 37.2329 54.2375 39.6997 53.4515 41.9999" stroke="#757575" stroke-width="4"/>
<path d="M57.3333 47.9997C57.3333 49.7885 56.6288 51.4126 55.4823 52.6099C54.2687 53.8773 52.5599 54.6663 50.6667 54.6663C46.9848 54.6663 44 51.6815 44 47.9997C44 45.3195 45.5815 43.0089 47.8623 41.9498C48.7147 41.5539 49.6649 41.333 50.6667 41.333C54.3485 41.333 57.3333 44.3178 57.3333 47.9997Z" fill="#FC3A52" stroke="#757575" stroke-width="4" stroke-linecap="round" stroke-linejoin="round"/>
<path d="M19.9974 47.9997C19.9974 49.7885 19.2929 51.4126 18.1463 52.6099C16.9327 53.8773 15.2239 54.6663 13.3307 54.6663C9.64884 54.6663 6.66406 51.6815 6.66406 47.9997C6.66406 45.3195 8.24558 43.0089 10.5263 41.9498C11.3788 41.5539 12.329 41.333 13.3307 41.333C17.0126 41.333 19.9974 44.3178 19.9974 47.9997Z" fill="#FC3A52" stroke="#757575" stroke-width="4" stroke-linecap="round" stroke-linejoin="round"/>
<path d="M38.6615 11.9997C38.6615 13.7885 37.9569 15.4126 36.8104 16.6099C35.5968 17.8773 33.888 18.6663 31.9948 18.6663C28.3129 18.6663 25.3281 15.6815 25.3281 11.9997C25.3281 9.31955 26.9096 7.00882 29.1904 5.94981C30.0428 5.55397 30.9931 5.33301 31.9948 5.33301C35.6767 5.33301 38.6615 8.31778 38.6615 11.9997Z" fill="#FC3A52" stroke="#757575" stroke-width="4" stroke-linecap="round" stroke-linejoin="round"/>
</svg>
