<svg width="64" height="64" viewBox="0 0 64 64" fill="none" xmlns="http://www.w3.org/2000/svg">
<path d="M23.5352 18.333H28.7352V31.333H41.7352V36.533H23.5352V18.333Z" fill="#FC3A52"/>
<path fill-rule="evenodd" clip-rule="evenodd" d="M57.3359 31.333C57.3359 45.6928 45.6957 57.333 31.3359 57.333C16.9761 57.333 5.33594 45.6928 5.33594 31.333C5.33594 16.9732 16.9761 5.33301 31.3359 5.33301C45.6957 5.33301 57.3359 16.9732 57.3359 31.333ZM52.1359 31.333C52.1359 36.8495 49.9445 42.1401 46.0438 46.0408C42.143 49.9416 36.8524 52.133 31.3359 52.133C25.8194 52.133 20.5289 49.9416 16.6281 46.0408C12.7274 42.1401 10.5359 36.8495 10.5359 31.333C10.5359 25.8165 12.7274 20.5259 16.6281 16.6252C20.5289 12.7244 25.8194 10.533 31.3359 10.533C36.8524 10.533 42.143 12.7244 46.0438 16.6252C49.9445 20.5259 52.1359 25.8165 52.1359 31.333Z" fill="#757575"/>
</svg>
