<svg width="64" height="64" viewBox="0 0 64 64" fill="none" xmlns="http://www.w3.org/2000/svg">
<path d="M29.206 29.6711C26.7448 29.6711 24.3387 28.9413 22.2923 27.5739C20.2458 26.2064 18.6508 24.2629 17.7089 21.989C16.767 19.715 16.5205 17.2129 17.0007 14.7989C17.4809 12.3849 18.6661 10.1675 20.4065 8.42713C22.1469 6.68674 24.3643 5.50152 26.7782 5.02135C29.1922 4.54118 31.6944 4.78762 33.9683 5.72951C36.2422 6.6714 38.1858 8.26644 39.5532 10.3129C40.9206 12.3594 41.6505 14.7654 41.6505 17.2267C41.6505 20.5271 40.3394 23.6924 38.0056 26.0262C35.6718 28.36 32.5065 29.6711 29.206 29.6711ZM29.206 8.48001C27.448 8.48001 25.7294 9.00133 24.2676 9.97806C22.8059 10.9548 21.6665 12.343 20.9938 13.9673C20.321 15.5915 20.145 17.3788 20.4879 19.103C20.8309 20.8273 21.6775 22.4112 22.9206 23.6543C24.1638 24.8974 25.7476 25.744 27.4719 26.087C29.1962 26.43 30.9834 26.2539 32.6077 25.5812C34.2319 24.9084 35.6201 23.7691 36.5969 22.3073C37.5736 20.8455 38.0949 19.127 38.0949 17.3689C38.0949 16.2016 37.865 15.0457 37.4183 13.9673C36.9716 12.8888 36.3168 11.9089 35.4914 11.0835C34.666 10.2581 33.6861 9.60335 32.6077 9.15664C31.5292 8.70993 30.3733 8.48001 29.206 8.48001ZM39.1083 31.8222C29.4877 29.6574 19.423 30.7001 10.4505 34.7911C9.21651 35.3806 8.17539 36.3084 7.44834 37.4667C6.7213 38.6249 6.33825 39.9658 6.34381 41.3333V51.9111C6.34381 52.1446 6.38979 52.3758 6.47914 52.5914C6.56848 52.8071 6.69943 53.0031 6.86451 53.1682C7.02959 53.3333 7.22557 53.4642 7.44126 53.5536C7.65695 53.6429 7.88813 53.6889 8.12159 53.6889C8.35505 53.6889 8.58622 53.6429 8.80191 53.5536C9.0176 53.4642 9.21358 53.3333 9.37867 53.1682C9.54375 53.0031 9.6747 52.8071 9.76404 52.5914C9.85338 52.3758 9.89937 52.1446 9.89937 51.9111V41.3333C9.88389 40.6413 10.0708 39.9597 10.4371 39.3723C10.8034 38.7849 11.3333 38.3173 11.9616 38.0267C17.3665 35.531 23.2528 34.2506 29.206 34.2756C32.5417 34.2713 35.866 34.6652 39.1083 35.4489V31.8222ZM39.3571 48.7289H50.2727V51.2178H39.3571V48.7289Z" fill="#757575"/>
<path d="M58.9698 38.1685H49.7786V41.724H57.192V56.604H32.0009V41.724H43.2009V42.4707C43.2009 42.9422 43.3882 43.3944 43.7216 43.7278C44.055 44.0612 44.5071 44.2485 44.9786 44.2485C45.4501 44.2485 45.9023 44.0612 46.2357 43.7278C46.5691 43.3944 46.7564 42.9422 46.7564 42.4707V35.5551C46.7564 35.0836 46.5691 34.6314 46.2357 34.298C45.9023 33.9646 45.4501 33.7773 44.9786 33.7773C44.5071 33.7773 44.055 33.9646 43.7216 34.298C43.3882 34.6314 43.2009 35.0836 43.2009 35.5551V38.1685H30.2231C29.7516 38.1685 29.2994 38.3558 28.966 38.6892C28.6326 39.0226 28.4453 39.4747 28.4453 39.9462V58.3818C28.4453 58.8533 28.6326 59.3055 28.966 59.6389C29.2994 59.9723 29.7516 60.1596 30.2231 60.1596H58.9698C59.4412 60.1596 59.8934 59.9723 60.2268 59.6389C60.5602 59.3055 60.7475 58.8533 60.7475 58.3818V39.9462C60.7475 39.4747 60.5602 39.0226 60.2268 38.6892C59.8934 38.3558 59.4412 38.1685 58.9698 38.1685Z" fill="#FC3A52"/>
</svg>
