<svg width="64" height="64" viewBox="0 0 64 64" fill="none" xmlns="http://www.w3.org/2000/svg">
<path d="M32 2C15.432 2 2 15.432 2 32C2 48.568 15.432 62 32 62C48.568 62 62 48.568 62 32C62 15.432 48.568 2 32 2ZM45.102 34.953C39.508 39.58 31.018 38.545 26.137 32.644C21.256 26.742 21.834 18.208 27.428 13.581C33.022 8.956 41.512 9.989 46.393 15.892C51.274 21.795 50.695 30.328 45.102 34.953Z" fill="#757575"/>
<path d="M40.2077 20.7379C40.9497 19.2809 40.9397 17.6639 39.9717 16.1069C38.2917 13.4059 34.9167 12.8819 31.8017 14.8219C28.6587 16.7749 27.6377 20.0309 29.3177 22.7339C30.2847 24.2889 31.7317 25.0129 33.3897 24.9779C32.2807 26.7959 32.2377 28.7809 33.3687 30.5989C35.1537 33.4679 38.6827 34.0929 42.3627 31.8059C46.0427 29.5169 47.0427 26.0759 45.2577 23.2039C44.1257 21.3889 42.3287 20.5489 40.2077 20.7379ZM32.0457 21.2699C31.1527 19.8339 31.5827 18.0749 33.1977 17.0709C34.7917 16.0809 36.5957 16.4829 37.4727 17.8929C38.3517 19.3049 37.9297 21.1269 36.3377 22.1179C34.7237 23.1229 32.9397 22.7049 32.0457 21.2699ZM40.8597 29.3909C39.0887 30.4929 37.1097 30.0649 36.1427 28.5079C35.2047 27.0019 35.7407 25.1099 37.5117 24.0079C39.2847 22.9059 41.2307 23.2869 42.1527 24.7699C43.1057 26.3009 42.6317 28.2869 40.8597 29.3909Z" fill="#FC3A52"/>
</svg>
