<svg width="33" height="24" viewBox="0 0 33 24" fill="none" xmlns="http://www.w3.org/2000/svg">
<g id="g7433">
<path id="Subtract" fill-rule="evenodd" clip-rule="evenodd" d="M29.4117 0.706752C30.8252 1.08731 31.9397 2.2018 32.3203 3.61531C33.027 6.19767 32.9999 11.5799 32.9999 11.5799C32.9999 11.5799 32.9999 16.9349 32.3203 19.5172C31.9397 20.9307 30.8252 22.0452 29.4117 22.4258C26.8294 23.1053 16.4999 23.1053 16.4999 23.1053C16.4999 23.1053 6.19767 23.1053 3.58812 22.3986C2.17462 22.018 1.06013 20.9035 0.679569 19.49C0 16.9349 0 11.5527 0 11.5527C0 11.5527 0 6.19767 0.679569 3.61531C1.06013 2.2018 2.2018 1.06013 3.58812 0.679569C6.17048 0 16.4999 0 16.4999 0C16.4999 0 26.8294 0 29.4117 0.706752ZM21.8005 11.5527L13.2108 16.5V6.60547L21.8005 11.5527Z" fill="white"/>
</g>
</svg>
