<svg width="93" height="93" viewBox="0 0 93 93" fill="none" xmlns="http://www.w3.org/2000/svg">
<circle cx="46.5" cy="46.5" r="46.5" fill="white"/>
<mask id="mask0_2261_16" style="mask-type:alpha" maskUnits="userSpaceOnUse" x="19" y="18" width="57" height="57">
<rect x="19" y="18" width="57" height="57" fill="#D9D9D9"/>
</mask>
<g mask="url(#mask0_2261_16)">
<path d="M33.25 65.5C31.2708 65.5 29.5885 64.8073 28.2031 63.4219C26.8177 62.0365 26.125 60.3542 26.125 58.375H21.375V32.25C21.375 30.9437 21.8401 29.8255 22.7703 28.8953C23.7005 27.9651 24.8187 27.5 26.125 27.5H59.375V37H66.5L73.625 46.5V58.375H68.875C68.875 60.3542 68.1823 62.0365 66.7969 63.4219C65.4115 64.8073 63.7292 65.5 61.75 65.5C59.7708 65.5 58.0885 64.8073 56.7031 63.4219C55.3177 62.0365 54.625 60.3542 54.625 58.375H40.375C40.375 60.3542 39.6823 62.0365 38.2969 63.4219C36.9115 64.8073 35.2292 65.5 33.25 65.5ZM33.25 60.75C33.9229 60.75 34.487 60.5224 34.9422 60.0672C35.3974 59.612 35.625 59.0479 35.625 58.375C35.625 57.7021 35.3974 57.138 34.9422 56.6828C34.487 56.2276 33.9229 56 33.25 56C32.5771 56 32.013 56.2276 31.5578 56.6828C31.1026 57.138 30.875 57.7021 30.875 58.375C30.875 59.0479 31.1026 59.612 31.5578 60.0672C32.013 60.5224 32.5771 60.75 33.25 60.75ZM26.125 53.625H28.025C28.6979 52.9125 29.4698 52.3385 30.3406 51.9031C31.2115 51.4677 32.1812 51.25 33.25 51.25C34.3187 51.25 35.2885 51.4677 36.1594 51.9031C37.0302 52.3385 37.8021 52.9125 38.475 53.625H54.625V32.25H26.125V53.625ZM61.75 60.75C62.4229 60.75 62.987 60.5224 63.4422 60.0672C63.8974 59.612 64.125 59.0479 64.125 58.375C64.125 57.7021 63.8974 57.138 63.4422 56.6828C62.987 56.2276 62.4229 56 61.75 56C61.0771 56 60.513 56.2276 60.0578 56.6828C59.6026 57.138 59.375 57.7021 59.375 58.375C59.375 59.0479 59.6026 59.612 60.0578 60.0672C60.513 60.5224 61.0771 60.75 61.75 60.75ZM59.375 48.875H69.4687L64.125 41.75H59.375V48.875Z" fill="#FF3F4E"/>
</g>
</svg>
